<svg width="20" height="19" fill="none" xmlns="http://www.w3.org/2000/svg"><path fill-rule="evenodd" clip-rule="evenodd" d="M8 3.75a.75.75 0 01-.75.75H.75a.75.75 0 010-1.5h6.5a.75.75 0 01.75.75z" fill="#fff"/><path fill-rule="evenodd" clip-rule="evenodd" d="M0 18V3h1.5v15H0z" fill="#fff"/><path fill-rule="evenodd" clip-rule="evenodd" d="M16 19H0v-1.5h16V19z" fill="#fff"/><path fill-rule="evenodd" clip-rule="evenodd" d="M15.25 19a.75.75 0 01-.75-.75v-6.5a.75.75 0 011.5 0v6.5a.75.75 0 01-.75.75zm.5-19a.75.75 0 01.75.75v6.5a.75.75 0 01-1.5 0V.75a.75.75 0 01.75-.75z" fill="#fff"/><path fill-rule="evenodd" clip-rule="evenodd" d="M20 3.75a.75.75 0 01-.75.75h-6.5a.75.75 0 010-1.5h6.5a.75.75 0 01.75.75z" fill="#fff"/></svg>